<?xml version="1.0" standalone="no"?>
<!DOCTYPE svg PUBLIC "-//W3C//DTD SVG 20010904//EN"
 "http://www.w3.org/TR/2001/REC-SVG-20010904/DTD/svg10.dtd">
<svg version="1.0" xmlns="http://www.w3.org/2000/svg"
 width="128.000000pt" height="128.000000pt" viewBox="0 0 128.000000 128.000000"
 preserveAspectRatio="xMidYMid meet">
<metadata>
Created by potrace 1.12, written by Peter Selinger 2001-2015
</metadata>
<g transform="translate(0.000000,128.000000) scale(0.100000,-0.100000)"
fill="#000000" stroke="none">
<path d="M0 640 l0 -640 640 0 640 0 0 640 0 640 -640 0 -640 0 0 -640z m752
449 c276 -58 428 -321 320 -553 -79 -170 -292 -278 -491 -250 -67 9 -74 8
-161 -25 -50 -18 -93 -31 -96 -29 -3 3 0 35 7 71 l12 65 -52 51 c-32 31 -64
76 -84 118 -28 60 -32 78 -32 154 0 78 3 91 38 161 92 186 314 284 539 237z"/>
<path d="M533 1065 c-115 -25 -216 -92 -279 -187 -41 -60 -55 -110 -55 -192 0
-96 31 -167 108 -245 l64 -66 -11 -48 c-5 -26 -10 -52 -10 -57 0 -5 30 3 68
17 61 25 77 27 187 24 181 -4 283 34 383 144 201 219 70 543 -247 611 -80 17
-127 17 -208 -1z m40 -255 c70 -25 73 -25 148 1 52 18 73 20 138 14 42 -4 96
-7 120 -7 l44 0 -7 -64 c-13 -123 -60 -205 -142 -245 -52 -25 -119 -22 -175 6
-35 19 -70 16 -139 -10 -137 -52 -270 63 -287 249 l-6 68 29 -5 c16 -4 47 -2
69 2 71 15 148 12 208 -9z"/>
<path d="M360 717 c0 -26 61 -87 100 -98 39 -12 105 -6 115 11 11 18 -26 72
-60 86 -44 18 -155 19 -155 1z"/>
<path d="M773 715 c-34 -14 -53 -41 -53 -73 0 -26 65 -39 113 -23 38 13 81 55
92 89 6 21 4 22 -57 22 -35 -1 -77 -7 -95 -15z"/>
</g>
</svg>
